<svg width="876" height="893" viewBox="0 0 876 893" fill="none" xmlns="http://www.w3.org/2000/svg">
<g clip-path="url(#clip0_331_165)">
<path d="M380.29 278.36C380.29 315.89 332.06 346.31 272.58 346.31V278.36H380.29Z" fill="#CAA895"/>
<path d="M475.34 349.5C480.51 349.5 484.7 348.072 484.7 346.31C484.7 344.548 480.51 343.12 475.34 343.12C470.171 343.12 465.98 344.548 465.98 346.31C465.98 348.072 470.171 349.5 475.34 349.5Z" fill="#1A1A1A"/>
<path opacity="0.51" d="M437.77 482.62C448.42 482.62 459.07 481.7 469.42 479.87L467.68 470.02C457.9 471.75 447.83 472.62 437.77 472.62V482.62Z" fill="#534741"/>
<path d="M437.77 632.29L565.25 570.42L875.55 687.16L437.77 892.38V632.29Z" fill="#006868"/>
<path d="M437.77 396.01L418.81 394.59L427.88 358.06C427.88 358.06 432.36 358.01 437.76 357.96V396.01H437.77Z" fill="#E4C898"/>
<path opacity="0.34" d="M437.77 426.77V572.8C410.7 572.62 387.14 562.39 374.59 547.27C349.56 537.32 327.09 520.05 312.36 492.5C311.64 491.16 310.95 489.84 310.25 488.52V426.77H437.76H437.77Z" fill="#543727"/>
<path d="M437.73 395.01L418.77 393.59L427.84 357.06C427.84 357.06 432.32 357.01 437.72 356.96V395.01H437.73Z" fill="#A0644D"/>
<path opacity="0.18" d="M312.37 455.49C286.87 407.78 277.69 376.88 264.35 334.18C265.24 316.98 265.81 305.62 265.81 305.62L374.59 510.26C349.56 500.31 327.09 483.04 312.36 455.49H312.37Z" fill="#2A1C14"/>
<path opacity="0.05" d="M260.13 124.5L346.7 204.36L262.71 292.35L260.13 124.5Z" fill="white"/>
<path d="M289.7 230.04L258.64 250.12" stroke="black" stroke-width="10" stroke-miterlimit="10"/>
<path d="M249.66 240.586L249.65 240.588C239.608 241.908 232.537 251.119 233.857 261.162L247.1 361.885C248.42 371.927 257.632 378.998 267.674 377.678L267.684 377.676C277.727 376.356 284.797 367.145 283.477 357.102L270.234 256.379C268.914 246.337 259.703 239.266 249.66 240.586Z" fill="#895A42"/>
<path opacity="0.76" d="M365.54 275.84C352.72 275.51 342.51 268.24 342.73 259.59L389.14 260.77C388.92 269.42 378.35 276.17 365.54 275.85V275.84Z" fill="#42210B"/>
<path d="M318.516 257.117C318.624 259.641 320.758 261.6 323.283 261.491C325.807 261.383 327.766 259.248 327.657 256.724C327.549 254.2 325.414 252.241 322.89 252.35C320.366 252.458 318.407 254.592 318.516 257.117Z" fill="#42210B"/>
<path d="M321.121 256.949L327.665 256.668L327.374 249.894L320.83 250.175L321.121 256.949Z" fill="#42210B"/>
<path d="M293.78 250.22C292.63 223.39 348.94 199.27 417.45 196.33V252.86L293.78 250.22Z" fill="#7D533B"/>
<path d="M320.9 250.73C320.89 250.59 320.87 250.46 320.86 250.32C320.33 237.86 338.14 226.98 360.64 226.02C383.14 225.06 401.82 234.37 402.35 246.83C402.43 248.74 402.08 250.61 401.35 252.41L320.89 250.74L320.9 250.73Z" fill="#42210B"/>
<path opacity="0.51" d="M437.77 403.9V421.19C437.7 421.19 437.63 421.19 437.55 421.19C405.8 421.19 380.06 407.95 380.06 400.35L437.76 403.9H437.77Z" fill="#710046"/>
<path d="M437.77 482.62C427.12 482.62 416.47 481.7 406.12 479.87L407.86 470.02C417.64 471.75 427.71 472.62 437.77 472.62V482.62Z" fill="#543727"/>
<path d="M437.77 406.63L380.28 398.52C380.28 398.52 408.68 378.78 421.41 387.87C427.39 392.15 433.25 393.39 437.77 393.52V406.63Z" fill="#623433"/>
<path d="M564.169 569.42L619.909 590.39L436.689 676.27V631.29L564.169 569.42Z" fill="#C5C5C5"/>
<path d="M417.45 305.87V196.33H437.77V358.61C426.54 358.61 417.45 353.1 417.45 346.31H380.29C380.29 327.69 395.78 311.84 417.45 305.87Z" fill="#B08967"/>
<path d="M400.21 349.5C405.379 349.5 409.57 348.072 409.57 346.31C409.57 344.548 405.379 343.12 400.21 343.12C395.04 343.12 390.85 344.548 390.85 346.31C390.85 348.072 395.04 349.5 400.21 349.5Z" fill="#1A1A1A"/>
<path d="M320.85 345.2C338.3 345.2 352.44 331.06 352.44 313.61H289.26C289.26 331.06 303.4 345.2 320.85 345.2Z" fill="#B98B71"/>
<path d="M465.99 242.84C448 239.65 429.17 239.65 411.18 242.84" stroke="black" stroke-width="10" stroke-miterlimit="10"/>
<path opacity="0.39" d="M520.154 421.634C523.309 413.551 523.105 405.922 519.699 404.592C516.293 403.263 510.975 408.738 507.82 416.82C504.666 424.903 504.869 432.533 508.275 433.862C511.681 435.191 517 429.717 520.154 421.634Z" fill="#42210B"/>
<path d="M367.383 435.774C370.789 434.444 370.993 426.815 367.839 418.732C364.684 410.649 359.366 405.175 355.96 406.504C352.554 407.833 352.35 415.463 355.505 423.546C358.659 431.628 363.978 437.103 367.383 435.774Z" fill="#B98B71"/>
<path d="M398.7 203.31L344.64 200.34L332.52 206.35" stroke="#333333" stroke-width="16" stroke-miterlimit="10" stroke-linecap="round"/>
</g>
<defs>
<clipPath id="clip0_331_165">
<rect width="875.55" height="892.38" fill="white"/>
</clipPath>
</defs>
</svg>
